<?xml version="1.0" standalone="no"?><!DOCTYPE svg PUBLIC "-//W3C//DTD SVG 1.1//EN" "http://www.w3.org/Graphics/SVG/1.1/DTD/svg11.dtd"><svg t="1499154194502" class="icon" style="" viewBox="0 0 1024 1024" version="1.1" xmlns="http://www.w3.org/2000/svg" p-id="876" xmlns:xlink="http://www.w3.org/1999/xlink" width="200" height="200"><defs><style type="text/css"></style></defs><path d="M963.945229 977.11211L737.796606 779.76137c-50.071396 34.634822-86.23299 58.642608-126.838803 74.978668-44.110637 17.748223-90.541109 25.319665-155.24783 25.319666-55.976896 0-110.277616-10.955516-161.391761-32.561604-49.366338-20.868283-93.690846-50.741661-131.741463-88.792279-38.050618-38.051641-67.925019-82.375126-88.793302-131.741463-21.606087-51.114145-32.561603-105.414865-32.561603-161.39176S52.17736 355.294982 73.783447 304.180837c20.868283-49.366338 50.741661-93.690846 88.793302-131.741463s82.375126-67.925019 131.741463-88.792279c51.114145-21.606087 105.414865-32.561603 161.391761-32.561603 55.977919 0 110.277616 10.955516 161.39176 32.561603 49.366338 20.86726 93.690846 50.741661 131.741463 88.792279 38.050618 38.050618 67.923996 82.375126 88.792279 131.741463 21.606087 51.114145 32.561603 105.414865 32.561603 161.391761 0 68.664869-11.267625 126.766149-34.44551 177.624466-19.777439 43.394323-44.002167 72.375377-63.466473 95.66071-2.829442 3.385097-5.51562 6.597255-8.027837 9.666151l226.601947 197.744713-26.913976 30.843472zM455.709973 92.018763C249.730715 92.018763 82.155115 259.594363 82.155115 465.573621c0 205.978235 167.5756 373.554858 373.554858 373.554858 119.241778 0 163.493631-27.079752 259.846096-93.753267l3.947915-5.703909c6.008854-8.679683 13.472849-17.610076 21.37482-27.062356 37.300534-44.623313 88.386026-105.737206 88.386026-247.034303 0-205.980281-167.576623-373.555881-373.554857-373.555881z" fill="#000000" p-id="877"></path></svg>